
  <svg
	width="16"
	height="16"
	viewBox="0 0 24 24"
	fill="none"
	xmlns="http://www.w3.org/2000/svg"
>
	<g class="oi-calendar-dates">
		<path
			class="oi-vector"
			d="M4 6C4 5.44772 4.44772 5 5 5H19C19.5523 5 20 5.44772 20 6V19C20 19.5523 19.5523 20 19 20H5C4.44772 20 4 19.5523 4 19V6Z"
			stroke="#000000"
			stroke-width="1.5"
			stroke-miterlimit="10"
			stroke-linecap="round"
			stroke-linejoin="round"
		/>
		<path
			class="oi-line"
			d="M9 7L9 3"
			stroke="#000000"
			stroke-width="1.5"
			stroke-linecap="round"
			stroke-linejoin="round"
		/>
		<path
			class="oi-line"
			d="M3.99997 10L20 10"
			stroke="#000000"
			stroke-width="1.5"
			stroke-linecap="round"
			stroke-linejoin="round"
		/>
		<path
			class="oi-line"
			d="M15 7L15 3"
			stroke="#000000"
			stroke-width="1.5"
			stroke-linecap="round"
			stroke-linejoin="round"
		/>
		<rect
			class="oi-mini-square"
			x="7.5"
			y="13.5"
			width="0.1"
			height="0.1"
			stroke="#000000"
			stroke-width="1.50"
		/>
		<rect
			class="oi-mini-square"
			x="7.5"
			y="16.5"
			width="0.1"
			height="0.1"
			stroke="#000000"
			stroke-width="1.50"
		/>
		<rect
			class="oi-mini-square"
			x="10.5"
			y="13.5"
			width="0.1"
			height="0.1"
			stroke="#000000"
			stroke-width="1.50"
		/>
		<rect
			class="oi-mini-square"
			x="10.5"
			y="16.5"
			width="0.1"
			height="0.1"
			stroke="#000000"
			stroke-width="1.50"
		/>
		<rect
			class="oi-mini-square"
			x="13.5"
			y="13.5"
			width="0.1"
			height="0.1"
			stroke="#000000"
			stroke-width="1.50"
		/>
		<rect
			class="oi-mini-square"
			x="13.5"
			y="16.5"
			width="0.1"
			height="0.1"
			stroke="#000000"
			stroke-width="1.50"
		/>
		<rect
			class="oi-mini-square"
			x="16.5"
			y="13.5"
			width="0.1"
			height="0.1"
			stroke="#000000"
			stroke-width="1.50"
		/>
		<rect
			class="oi-mini-square"
			x="16.5"
			y="16.5"
			width="0.1"
			height="0.1"
			stroke="#000000"
			stroke-width="1.50"
		/>
	</g>
</svg>
